<svg width="18" height="23" viewBox="0 0 18 23" fill="none" xmlns="http://www.w3.org/2000/svg">
<path d="M9 0.0556641C11.3869 0.0556641 13.6761 1.04904 15.364 2.81725C17.0518 4.58546 18 6.98368 18 9.48431C18 13.9896 15.0975 18.1367 9.402 21.9333C9.28181 22.0132 9.14237 22.0557 9 22.0557C8.85763 22.0557 8.71819 22.0132 8.598 21.9333C2.9025 18.1367 0 13.9896 0 9.48431C0 6.98368 0.948211 4.58546 2.63604 2.81725C4.32387 1.04904 6.61305 0.0556641 9 0.0556641ZM9 6.34143C8.20435 6.34143 7.44129 6.67255 6.87868 7.26196C6.31607 7.85136 6 8.65076 6 9.48431C6 10.3179 6.31607 11.1173 6.87868 11.7067C7.44129 12.2961 8.20435 12.6272 9 12.6272C9.79565 12.6272 10.5587 12.2961 11.1213 11.7067C11.6839 11.1173 12 10.3179 12 9.48431C12 8.65076 11.6839 7.85136 11.1213 7.26196C10.5587 6.67255 9.79565 6.34143 9 6.34143Z" fill="#F59E0B"/>
</svg>
