<svg width="7" height="15" viewBox="0 0 7 15" fill="none" xmlns="http://www.w3.org/2000/svg">
<path d="M0.993352 0.0574684C0.761661 0.0570135 0.537126 0.138208 0.358724 0.28696C0.258315 0.370723 0.175316 0.473597 0.114479 0.589686C0.0536416 0.705776 0.0161625 0.832801 0.00418798 0.963488C-0.00778654 1.09417 0.00597897 1.22595 0.0446958 1.35128C0.0834126 1.47661 0.146319 1.59301 0.229814 1.69384L4.67221 7.04198L0.388472 12.4001C0.306104 12.5022 0.244592 12.6196 0.207475 12.7457C0.170357 12.8717 0.158365 13.0039 0.172187 13.1347C0.186009 13.2654 0.225373 13.3921 0.288017 13.5075C0.35066 13.6229 0.435349 13.7246 0.537213 13.807C0.639811 13.8978 0.75996 13.9663 0.89012 14.0082C1.02028 14.0501 1.15764 14.0645 1.29359 14.0504C1.42953 14.0364 1.56112 13.9942 1.68009 13.9266C1.79907 13.8589 1.90286 13.7672 1.98496 13.6573L6.77442 7.67059C6.92027 7.49205 7 7.2681 7 7.03699C7 6.80588 6.92027 6.58193 6.77442 6.4034L1.81639 0.416673C1.71691 0.295923 1.59055 0.200471 1.44755 0.138061C1.30455 0.0756502 1.14894 0.0480394 0.993352 0.0574684Z" fill="white"/>
</svg>
